<svg width="24" height="14" viewBox="0 0 24 14" fill="none" xmlns="http://www.w3.org/2000/svg">
<path d="M0.75 12.6875C0.75 12.4389 0.848772 12.2004 1.02459 12.0246C1.2004 11.8488 1.43886 11.75 1.6875 11.75H7.3125C7.56114 11.75 7.7996 11.8488 7.97541 12.0246C8.15123 12.2004 8.25 12.4389 8.25 12.6875C8.25 12.9361 8.15123 13.1746 7.97541 13.3504C7.7996 13.5262 7.56114 13.625 7.3125 13.625H1.6875C1.43886 13.625 1.2004 13.5262 1.02459 13.3504C0.848772 13.1746 0.75 12.9361 0.75 12.6875ZM0.75 7.0625C0.75 6.81386 0.848772 6.5754 1.02459 6.39959C1.2004 6.22377 1.43886 6.125 1.6875 6.125H14.8125C15.0611 6.125 15.2996 6.22377 15.4754 6.39959C15.6512 6.5754 15.75 6.81386 15.75 7.0625C15.75 7.31114 15.6512 7.5496 15.4754 7.72541C15.2996 7.90123 15.0611 8 14.8125 8H1.6875C1.43886 8 1.2004 7.90123 1.02459 7.72541C0.848772 7.5496 0.75 7.31114 0.75 7.0625ZM0.75 1.4375C0.75 1.18886 0.848772 0.950403 1.02459 0.774588C1.2004 0.598772 1.43886 0.5 1.6875 0.5H22.3125C22.5611 0.5 22.7996 0.598772 22.9754 0.774588C23.1512 0.950403 23.25 1.18886 23.25 1.4375C23.25 1.68614 23.1512 1.9246 22.9754 2.10041C22.7996 2.27623 22.5611 2.375 22.3125 2.375H1.6875C1.43886 2.375 1.2004 2.27623 1.02459 2.10041C0.848772 1.9246 0.75 1.68614 0.75 1.4375Z" fill="white"/>
</svg>
